HIERARCHY
ROOT Hips
{
	OFFSET -3.958830 18.904000 13.208200
	CHANNELS 6 Xposition Yposition Zposition Zrotation Yrotation Xrotation 
	JOINT LHipJoint
	{
		OFFSET 0.000000 0.000000 0.000000
		CHANNELS 3 Zrotation Yrotation Xrotation
		JOINT LeftUpLeg
		{
			OFFSET 1.800000 -1.400000 0.085000
			CHANNELS 3 Zrotation Yrotation Xrotation
			JOINT LeftLeg
			{
				OFFSET 2.215000 -6.000000 0.000000
				CHANNELS 3 Zrotation Yrotation Xrotation
				JOINT LeftFoot
				{
					OFFSET 2.500000 -6.900000 0.000000
					CHANNELS 3 Zrotation Yrotation Xrotation
					JOINT LeftToeBase
					{
						OFFSET 0.200000 -0.500000 1.950000
						CHANNELS 3 Zrotation Yrotation Xrotation
						End Site
						{
							OFFSET 0.000000 0.000000 0.000000
						}
					}
				}
			}
		}
	}
	JOINT RHipJoint
	{
		OFFSET 0.000000 0.000000 0.000000
		CHANNELS 3 Zrotation Yrotation Xrotation
		JOINT RightUpLeg
		{
			OFFSET -1.800000 -1.400000 0.085000
			CHANNELS 3 Zrotation Yrotation Xrotation
			JOINT RightLeg
			{
				OFFSET -2.215000 -6.000000 0.000000
				CHANNELS 3 Zrotation Yrotation Xrotation
				JOINT RightFoot
				{
					OFFSET -2.500000 -6.900000 0.000000
					CHANNELS 3 Zrotation Yrotation Xrotation
					JOINT RightToeBase
					{
						OFFSET -0.200000 -0.500000 1.950000
						CHANNELS 3 Zrotation Yrotation Xrotation
						End Site
						{
							OFFSET 0.000000 0.000000 0.000000
						}
					}
				}
			}
		}
	}
	JOINT LowerBack
	{
		OFFSET 0.000000 0.000000 0.000000
		CHANNELS 3 Zrotation Yrotation Xrotation
		JOINT Spine
		{
			OFFSET -0.087000 1.940000 -0.288900
			CHANNELS 3 Zrotation Yrotation Xrotation
			JOINT Spine1
			{
				OFFSET 0.000000 1.950000 0.060000
				CHANNELS 3 Zrotation Yrotation Xrotation
				JOINT Neck
				{
					OFFSET 0.000000 0.000000 0.000000
					CHANNELS 3 Zrotation Yrotation Xrotation
					JOINT Neck1
					{
						OFFSET 0.000000 1.600000 0.340000
						CHANNELS 3 Zrotation Yrotation Xrotation
						JOINT Head
						{
							OFFSET 0.000000 1.667000 -0.240000
							CHANNELS 3 Zrotation Yrotation Xrotation
							End Site
							{
								OFFSET 0.000000 0.000000 0.000000
							}
						}
					}
				}
				JOINT LeftShoulder
				{
					OFFSET 0.000000 0.000000 0.000000
					CHANNELS 3 Zrotation Yrotation Xrotation
					JOINT LeftArm
					{
						OFFSET 2.700000 1.550000 -0.730000
						CHANNELS 3 Zrotation Yrotation Xrotation
						JOINT LeftForeArm
						{
							OFFSET 5.450000 0.000000 0.000000
							CHANNELS 3 Zrotation Yrotation Xrotation
							JOINT LeftHand
							{
								OFFSET 3.450000 0.000000 0.000000
								CHANNELS 3 Zrotation Yrotation Xrotation
								JOINT LeftHandIndex1
								{
									OFFSET 0.750000 0.000000 0.000000
									CHANNELS 3 Zrotation Yrotation Xrotation
									End Site
									{
										OFFSET 0.000000 0.000000 0.000000
									}
								}
							}
						}
					}
				}
				JOINT RightShoulder
				{
					OFFSET 0.000000 0.000000 0.000000
					CHANNELS 3 Zrotation Yrotation Xrotation
					JOINT RightArm
					{
						OFFSET -2.700000 1.550000 -0.730000
						CHANNELS 3 Zrotation Yrotation Xrotation
						JOINT RightForeArm
						{
							OFFSET -5.450000 0.000000 0.000000
							CHANNELS 3 Zrotation Yrotation Xrotation
							JOINT RightHand
							{
								OFFSET -3.450000 0.000000 0.000000
								CHANNELS 3 Zrotation Yrotation Xrotation
								JOINT RightHandIndex1
								{
									OFFSET -0.750000 0.000000 0.000000
									CHANNELS 3 Zrotation Yrotation Xrotation
									End Site
									{
										OFFSET 0.000000 0.000000 0.000000
									}
								}
							}
						}
					}
				}
			}
		}
	}
}
MOTION
Frames: 9
Frame Time: 0.016667
-0.895640 18.324140 -4.349450 -8.537433 8.941065 5.354440 -14.959644 12.712671 2.499338 6.415982 -2.100589 -15.509587 -3.819497 3.843345 7.490595 -0.562193 3.562713 3.846514 0.505160 0.140110 0.134640 18.608157 -11.303743 2.520192 -8.736908 4.267292 -28.991595 -11.664371 -4.971313 63.727217 -1.111212 -10.014325 1.218848 0.338280 0.864810 0.326140 -4.467823 -0.357059 -6.669701 16.466751 -2.559240 0.961111 -4.864747 -2.174150 8.926027 0.743194 -1.893449 -10.101088 -1.971126 -0.159004 15.918303 -1.700680 -2.306070 4.876570 -16.720945 -16.930138 5.870170 -50.222913 -12.356947 -0.963817 -8.983031 -24.074445 -0.199657 -4.208177 3.419289 -0.198060 0.750690 -0.666220 0.476010 15.255357 17.280865 6.599508 61.397860 9.546596 -3.510459 4.710542 19.462836 -2.156717 1.947076 -2.157843 -0.209110 0.136200 -0.172980 -0.022830 
-0.884970 18.357810 -4.335030 -8.680207 9.819435 5.636879 -14.969973 12.644658 2.490923 6.511822 -2.101655 -15.304460 -3.994780 3.770914 6.689394 -0.569674 3.602497 3.864326 0.515200 0.177840 0.117100 18.621290 -11.282627 2.514691 -8.174736 4.320595 -29.557373 -13.831416 -3.754312 65.460277 -1.173394 -10.354881 1.133663 0.390720 0.932600 0.331770 -4.475799 -0.305565 -6.630637 17.290509 -2.943377 0.304030 -5.488186 -2.544749 8.939438 0.889512 -2.178122 -9.791740 -2.184195 -0.291834 14.600842 -2.378040 -2.500790 5.326830 -16.168694 -15.770256 5.536347 -52.256247 -12.765525 -1.128987 -7.051853 -25.998700 -0.582578 -4.272387 3.438599 -0.280300 0.821280 -0.718310 0.499400 14.454871 16.165172 6.151953 62.040540 9.720575 -3.269999 4.911328 19.815235 -2.295941 1.920361 -2.215400 -0.215370 0.162590 -0.176580 0.002300 
-0.881790 18.407690 -4.332600 -9.018637 10.571470 5.355953 -14.964695 12.640948 2.485977 6.823867 -1.988145 -14.658362 -4.517250 3.886367 6.312587 -0.562712 3.693823 3.845241 0.489520 0.135230 0.119090 18.639513 -11.228691 2.550885 -6.651490 4.562871 -29.873209 -16.943380 -1.769901 67.663409 -1.319393 -10.709721 1.073453 0.356180 0.934600 0.313550 -4.516779 -0.398416 -6.663882 18.630671 -3.486791 0.466018 -6.224989 -2.944454 8.768217 1.016588 -2.735704 -9.730726 -3.169669 -0.540704 15.032200 -2.514650 -2.976160 4.837390 -16.370663 -15.352875 5.437616 -53.915240 -13.361263 -1.626942 -4.481998 -29.082604 -1.227657 -4.237221 3.358393 -0.228980 0.801430 -0.699980 0.491550 14.337812 15.872411 6.194232 61.721525 9.527395 -3.662963 4.517953 20.863568 -2.273942 1.906174 -2.132487 -0.237830 0.208890 -0.158650 -0.009420 
-0.889330 18.428820 -4.314620 -8.671818 11.233533 5.171776 -14.975181 12.683791 2.452565 6.629763 -1.898756 -14.198622 -5.013902 4.166438 7.248956 -0.557701 3.806283 3.816110 0.470310 0.100830 0.088010 18.639728 -11.169201 2.583530 -6.382444 4.549164 -30.522577 -18.501700 -0.977315 70.036539 -1.440471 -11.117944 0.974456 0.338480 0.950790 0.288270 -4.510532 -0.572231 -6.669224 18.777202 -3.885207 0.612198 -6.662241 -3.209591 8.595540 0.913909 -3.377561 -9.601953 -4.272671 -0.826892 15.323052 -1.914680 -4.147620 4.689740 -16.645352 -14.608415 5.274553 -55.405194 -14.065722 -2.313193 -1.729976 -33.918166 -2.155269 -4.178948 3.327071 -0.194350 0.775940 -0.708360 0.497390 14.771390 15.424788 6.162241 60.797412 9.239833 -3.821629 4.460597 21.643529 -2.190423 1.901737 -2.082981 -0.262470 0.245420 -0.138360 -0.004470 
-0.901050 18.434610 -4.304060 -8.586765 11.360083 4.938159 -14.969179 12.701362 2.370736 6.716439 -1.795426 -13.631239 -5.453858 4.574530 8.927306 -0.536139 3.933004 3.756391 0.499880 0.119260 0.120340 18.657662 -11.065164 2.716409 -6.345053 4.786762 -31.944560 -18.154619 -1.639394 72.635674 -1.560268 -11.458842 0.873359 0.337280 0.907550 0.266760 -4.545255 -0.674045 -6.715222 19.311163 -4.256869 0.941091 -7.593386 -3.386915 8.516662 1.205563 -3.823381 -9.514449 -5.127721 -0.755900 15.878329 -1.308210 -4.579800 3.968750 -18.089409 -14.334273 5.217597 -55.432740 -14.429688 -3.399114 1.875082 -39.980626 -3.632988 -4.078013 3.307722 -0.144630 0.719100 -0.674680 0.497820 15.563001 15.345609 6.222840 59.813439 9.181307 -3.953145 4.448760 22.873575 -2.107490 1.906115 -2.046139 -0.261050 0.256340 -0.155650 -0.015130 
-0.912110 18.409560 -4.290280 -8.742275 11.345383 4.897049 -14.967645 12.680194 2.238832 6.996822 -1.728494 -13.302915 -5.762206 5.150076 11.555064 -0.537595 4.167387 3.662230 0.483160 0.105470 0.112520 18.678921 -10.908430 2.939433 -6.732511 5.173235 -34.168041 -15.959678 -3.983726 75.286496 -1.626700 -11.829204 0.770543 0.341970 0.906910 0.248120 -4.571727 -0.707048 -6.776985 19.736226 -4.409355 1.083546 -8.195103 -3.444119 8.526590 1.601691 -3.839595 -9.415729 -5.144023 -1.003553 15.964556 -1.797710 -4.437220 4.058240 -19.270076 -13.847707 5.153329 -55.195245 -14.684304 -4.449874 5.315684 -47.699891 -5.636107 -4.049734 3.272256 -0.132600 0.727360 -0.684670 0.488160 15.910733 14.791470 6.202167 59.027951 8.695672 -4.334117 4.721036 24.782197 -2.029748 1.865353 -2.030141 -0.287570 0.270850 -0.142580 -0.033790 
-0.928010 18.368280 -4.277990 -8.633943 11.030182 4.817022 -14.972283 12.649275 2.145400 7.197881 -1.714834 -12.693733 -6.603840 5.942437 14.443903 -0.466662 4.483210 3.509948 0.531700 0.154290 0.152200 18.695076 -10.683529 3.187778 -7.695855 5.516371 -36.391757 -12.107310 -7.617357 76.564572 -1.702356 -12.053753 0.692192 0.342130 0.836970 0.263120 -4.577219 -0.816551 -6.886980 19.547052 -4.485895 1.549373 -8.319794 -3.513707 8.403175 1.888193 -3.700849 -9.260962 -5.102573 -0.998112 16.820706 -1.651230 -4.105000 3.332320 -20.578565 -13.265992 5.089680 -55.031642 -15.146035 -5.072432 10.218289 -54.940211 -8.815657 -3.958611 3.250903 -0.085660 0.680830 -0.624780 0.491880 16.575702 14.076229 6.097519 57.934290 8.241814 -4.716688 5.032755 26.906824 -1.818509 1.847485 -2.021026 -0.251830 0.238070 -0.171550 -0.047860 
-0.958410 18.308530 -4.281670 -8.566969 11.214245 4.152477 -14.972161 12.666219 2.092801 7.567988 -1.755659 -11.631996 -7.551497 7.031444 18.129752 -0.335543 4.917766 3.269621 0.604490 0.211380 0.271520 18.699786 -10.395020 3.486339 -8.685566 5.893122 -37.960007 -6.351537 -12.487574 76.304564 -1.835958 -12.207534 0.610679 0.302800 0.639960 0.253490 -4.587123 -1.084097 -7.119230 19.335597 -4.809638 3.155191 -8.324812 -3.647859 8.348526 2.094881 -3.629475 -9.708641 -5.552823 -1.040888 19.234577 -0.708100 -3.770830 0.553440 -21.660979 -14.085544 5.603895 -53.695302 -15.031880 -6.243403 14.995829 -62.443218 -13.033042 -3.742159 3.174786 0.065390 0.513890 -0.466460 0.450410 17.118868 14.841596 6.662391 56.961239 7.492356 -6.013203 4.222093 29.923364 -1.718757 1.865704 -1.934792 -0.192030 0.187600 -0.223190 -0.096240 
-1.006790 18.244050 -4.278580 -7.773448 10.276674 3.111566 -15.002932 12.770164 2.102054 6.855910 -1.739390 -9.807234 -7.838489 8.104817 22.310099 -0.189230 5.432423 2.985230 0.668640 0.250560 0.383140 18.659660 -10.058533 3.837439 -9.930665 6.578392 -39.159868 -0.685626 -16.341035 74.698274 -1.971326 -12.292847 0.542972 0.249330 0.414120 0.253970 -4.479115 -1.557454 -7.469773 17.249009 -4.729289 6.037487 -7.276485 -3.428667 7.770849 2.111337 -3.493659 -10.208285 -6.220987 -0.497277 22.882586 0.640370 -2.981900 -3.146260 -23.855436 -15.119204 6.029376 -51.247280 -14.314318 -7.575460 21.641822 -68.814612 -19.059591 -3.517610 3.055635 0.252130 0.325630 -0.292550 0.389400 19.219401 16.022975 7.438513 54.393653 6.118840 -7.661253 3.812998 33.635626 -1.448629 1.868519 -1.835445 -0.131160 0.113940 -0.254500 -0.162400 
